<?xml version="1.0" standalone="no"?><!DOCTYPE svg PUBLIC "-//W3C//DTD SVG 1.1//EN" "http://www.w3.org/Graphics/SVG/1.1/DTD/svg11.dtd"><svg t="1513046146225" class="icon" style="" viewBox="0 0 1024 1024" version="1.1" xmlns="http://www.w3.org/2000/svg" p-id="1841" xmlns:xlink="http://www.w3.org/1999/xlink" width="200" height="200"><defs><style type="text/css"></style></defs><path d="M535.04 88.096c12.128 12.864 11.456 33.088-1.376 45.248l-419.328 394.816c-12.832 12.096-33.12 11.488-45.216-1.344l0 0c-12.096-12.864-11.52-33.12 1.344-45.216l419.328-394.88c12.864-12.096 33.088-11.488 45.248 1.376l0 0zM488.832 88.096c12.096-12.896 32.352-13.504 45.216-1.376l419.488 394.656c12.832 12.128 13.504 32.384 1.408 45.28l0 0c-12.16 12.832-32.352 13.472-45.248 1.376l-419.488-394.688c-12.864-12.128-13.472-32.352-1.376-45.248l0 0zM963.584 234.016c0 17.664-14.304 32-32 32l0 0c-17.696 0-32-14.336-32-32l0-128c0-17.664 14.304-32 32-32l0 0c17.696 0 32 14.336 32 32l0 128zM963.584 106.016c0 17.664-14.304 32-32 32l-128 0c-17.696 0-32-14.336-32-32l0 0c0-17.664 14.304-32 32-32l128 0c17.696 0 32 14.304 32 32l0 0zM257.344 938.688c0 17.696-14.336 32-32 32l0 0c-17.664 0-32-14.304-32-32l0-440c0-17.664 14.336-32 32-32l0 0c17.664 0 32 14.336 32 32l0 440zM835.552 938.688c0 17.696-14.304 32-32 32l0 0c-17.664 0-32-14.304-32-32l0-440c0-17.664 14.336-32 32-32l0 0c17.696 0 32 14.336 32 32l0 440zM449.312 938.688c0 17.696-14.304 32-32 32l-192 0c-17.664 0-32-14.304-32-32l0 0c0-17.696 14.336-32 32-32l192 0c17.696 0 32 14.304 32 32l0 0zM835.488 938.688c0 17.696-14.304 32-32 32l-192 0c-17.696 0-32-14.304-32-32l0 0c0-17.696 14.304-32 32-32l192 0c17.696 0 32 14.304 32 32l0 0zM643.488 682.688c0 17.696-14.304 32-32 32l-192 0c-17.664 0-32-14.304-32-32l0 0c0-17.696 14.336-32 32-32l192 0c17.696 0 32 14.304 32 32l0 0zM449.312 938.688c0 17.696-14.336 32-32 32l0 0c-17.664 0-32-14.304-32-32l0-256c0-17.696 14.336-32 32-32l0 0c17.664 0 32 14.304 32 32l0 256zM643.488 938.688c0 17.696-14.304 32-32 32l0 0c-17.664 0-32-14.304-32-32l0-256c0-17.696 14.336-32 32-32l0 0c17.696 0 32 14.304 32 32l0 256z" p-id="1842" fill="#8a8a8a"></path></svg>