<?xml version="1.0" standalone="no"?><!DOCTYPE svg PUBLIC "-//W3C//DTD SVG 1.1//EN" "http://www.w3.org/Graphics/SVG/1.1/DTD/svg11.dtd"><svg t="1512978260584" class="icon" style="" viewBox="0 0 1147 1024" version="1.1" xmlns="http://www.w3.org/2000/svg" p-id="1865" xmlns:xlink="http://www.w3.org/1999/xlink" width="224.0234375" height="200"><defs><style type="text/css"></style></defs><path d="M624.028677 38.124594c-244.830824 0-443.309234 198.47841-443.309235 443.309234s198.47841 443.309234 443.309235 443.309234 443.309234-198.47841 443.309234-443.309234S868.886099 38.124594 624.028677 38.124594z m192.396207 708.736205H408.731114c-44.330923 0-50.617048-51.317477-50.617048-51.317477v-390.112126c0-40.78445 50.617048-50.617048 50.617048-50.617048h220.697069v50.617048s-147.621975-4.920732-186.978969 0c-38.665431 4.920732-33.744699 33.691502-33.744699 33.691502s0.700429 284.69319 0.700429 323.358622 33.744699 33.744699 33.744699 33.744698c199.631014-0.709295 341.631828-1.409723 356.420624 0 1.400857 0 9.841465 1.400857 14.052903-3.546473 3.546474-3.546474 3.546474-9.141036 2.819447-13.352475v-135.652625h50.581583s-4.920732 103.335382 0 152.498376c5.621161 49.295987-50.608182 50.70571-50.608182 50.705711z m80.957133-384.464366a0.177324 0.177324 0 0 1-0.124127-0.044331l-7.030885 7.030884-120.198865 122.353349c-7.030884 7.030884-16.845751 7.030884-23.938699 0l-11.951617-11.951617c-7.030884-7.030884-7.030884-16.845751 0-23.938699l91.410364-91.366033A259.007853 259.007853 0 0 0 530.313104 551.476687a192.848383 192.848383 0 0 0-7.030884 33.691502l-50.608182-13.299277c2.110152-11.951617 3.546474-21.793082 7.030884-33.691502 39.356994-147.692904 178.547227-241.160223 324.050184-227.860946l-70.99154-70.929478c-7.030884-7.030884-7.030884-16.845751 0-23.938698L744.759513 203.505537c7.022018-7.030884 16.845751-7.030884 23.938699 0l120.207732 121.608589 7.030884 7.022018 7.022019 7.030885a15.409429 15.409429 0 0 1 4.920732 11.951617c-0.088662 3.378016-9.167635 11.295519-10.506429 11.295519z" fill="#e25d55" p-id="1866"></path></svg>