<?xml version="1.0" standalone="no"?><!DOCTYPE svg PUBLIC "-//W3C//DTD SVG 1.1//EN" "http://www.w3.org/Graphics/SVG/1.1/DTD/svg11.dtd"><svg t="1513005582803" class="icon" style="" viewBox="0 0 1024 1024" version="1.1" xmlns="http://www.w3.org/2000/svg" p-id="2514" xmlns:xlink="http://www.w3.org/1999/xlink" width="200" height="200"><defs><style type="text/css"></style></defs><path d="M512 1024c-281.6 0-512-230.4-512-512s230.4-512 512-512 512 230.4 512 512-230.4 512-512 512zM512 64C268.8 64 64 268.8 64 512s204.8 448 448 448 448-204.8 448-448-204.8-448-448-448z" fill="#d4237a" p-id="2515"></path><path d="M428.8 665.6c-6.4 0-19.2-6.4-25.6-12.8L294.4 531.2c-12.8-12.8-12.8-32 0-44.8 12.8-12.8 32-12.8 44.8 0l89.6 96 249.6-224c12.8-12.8 32-12.8 44.8 0 12.8 12.8 12.8 32 0 44.8l-275.2 256c-6.4 6.4-12.8 6.4-19.2 6.4z" fill="#d4237a" p-id="2516"></path></svg>